<svg width="23" height="22" viewBox="0 0 23 22" fill="none" xmlns="http://www.w3.org/2000/svg">
<g id="icn bxs-star">
<path id="Vector" d="M21.0968 8.41243C21.0391 8.24262 20.933 8.09341 20.7915 7.98322C20.65 7.87303 20.4794 7.80669 20.3006 7.79238L15.0714 7.37688L12.8086 2.36786C12.7366 2.20653 12.6193 2.0695 12.4711 1.97332C12.3229 1.87714 12.15 1.8259 11.9733 1.82581C11.7966 1.82571 11.6237 1.87675 11.4754 1.97277C11.327 2.0688 11.2097 2.20569 11.1374 2.36694L8.87461 7.37688L3.64546 7.79238C3.46976 7.8063 3.3018 7.87054 3.16167 7.97742C3.02153 8.08429 2.91515 8.22928 2.85525 8.39503C2.79536 8.56079 2.78448 8.74028 2.82393 8.91205C2.86338 9.08383 2.95148 9.24059 3.07769 9.36361L6.942 13.1307L5.57532 19.0487C5.53382 19.2278 5.54712 19.4153 5.61349 19.5868C5.67986 19.7583 5.79625 19.9058 5.94753 20.0103C6.09882 20.1149 6.27803 20.1715 6.4619 20.1729C6.64577 20.1743 6.82582 20.1204 6.97868 20.0182L11.973 16.6886L16.9674 20.0182C17.1236 20.1219 17.3079 20.1753 17.4954 20.1712C17.6828 20.1671 17.8646 20.1057 18.0161 19.9952C18.1677 19.8847 18.2817 19.7305 18.343 19.5532C18.4043 19.376 18.4098 19.1842 18.3588 19.0037L16.6812 13.1334L20.8418 9.38929C21.1142 9.14347 21.2142 8.76007 21.0968 8.41243Z" fill="#F3CD03"/>
</g>
</svg>
